<mxfile host="app.diagrams.net" modified="2023-09-04T16:05:16.142Z" agent="Mozilla/5.0 (Windows NT 10.0; Win64; x64) AppleWebKit/537.36 (KHTML, like Gecko) Chrome/115.0.0.0 Safari/537.36" etag="h2fFDr-bGYBll3_ZjQHG" version="21.6.5" type="device">
  <diagram name="Page-1" id="CU2gDd6kSc4wWZl5K7EG">
    <mxGraphModel dx="1050" dy="574" grid="1" gridSize="10" guides="1" tooltips="1" connect="1" arrows="1" fold="1" page="1" pageScale="1" pageWidth="850" pageHeight="1100" math="0" shadow="0">
      <root>
        <mxCell id="0" />
        <mxCell id="1" parent="0" />
        <mxCell id="uXriS7txFUDFRhs4CFdI-3" value="" style="edgeStyle=orthogonalEdgeStyle;rounded=0;orthogonalLoop=1;jettySize=auto;html=1;" edge="1" parent="1" source="uXriS7txFUDFRhs4CFdI-1" target="uXriS7txFUDFRhs4CFdI-2">
          <mxGeometry relative="1" as="geometry" />
        </mxCell>
        <mxCell id="uXriS7txFUDFRhs4CFdI-22" value="" style="edgeStyle=orthogonalEdgeStyle;rounded=0;orthogonalLoop=1;jettySize=auto;html=1;" edge="1" parent="1" source="uXriS7txFUDFRhs4CFdI-1" target="uXriS7txFUDFRhs4CFdI-4">
          <mxGeometry relative="1" as="geometry" />
        </mxCell>
        <mxCell id="uXriS7txFUDFRhs4CFdI-23" style="edgeStyle=orthogonalEdgeStyle;rounded=0;orthogonalLoop=1;jettySize=auto;html=1;entryX=0.5;entryY=0;entryDx=0;entryDy=0;" edge="1" parent="1" source="uXriS7txFUDFRhs4CFdI-1" target="uXriS7txFUDFRhs4CFdI-6">
          <mxGeometry relative="1" as="geometry" />
        </mxCell>
        <mxCell id="uXriS7txFUDFRhs4CFdI-1" value="трансформација" style="ellipse;whiteSpace=wrap;html=1;" vertex="1" parent="1">
          <mxGeometry x="460" y="120" width="120" height="80" as="geometry" />
        </mxCell>
        <mxCell id="uXriS7txFUDFRhs4CFdI-5" value="" style="edgeStyle=orthogonalEdgeStyle;rounded=0;orthogonalLoop=1;jettySize=auto;html=1;" edge="1" parent="1" source="uXriS7txFUDFRhs4CFdI-2" target="uXriS7txFUDFRhs4CFdI-4">
          <mxGeometry relative="1" as="geometry" />
        </mxCell>
        <mxCell id="uXriS7txFUDFRhs4CFdI-12" value="" style="edgeStyle=orthogonalEdgeStyle;rounded=0;orthogonalLoop=1;jettySize=auto;html=1;" edge="1" parent="1" source="uXriS7txFUDFRhs4CFdI-2" target="uXriS7txFUDFRhs4CFdI-11">
          <mxGeometry relative="1" as="geometry" />
        </mxCell>
        <mxCell id="uXriS7txFUDFRhs4CFdI-2" value="анализа питања првог круга / услови" style="ellipse;whiteSpace=wrap;html=1;" vertex="1" parent="1">
          <mxGeometry x="260" y="240" width="120" height="80" as="geometry" />
        </mxCell>
        <mxCell id="uXriS7txFUDFRhs4CFdI-7" value="" style="edgeStyle=orthogonalEdgeStyle;rounded=0;orthogonalLoop=1;jettySize=auto;html=1;" edge="1" parent="1" source="uXriS7txFUDFRhs4CFdI-4" target="uXriS7txFUDFRhs4CFdI-6">
          <mxGeometry relative="1" as="geometry" />
        </mxCell>
        <mxCell id="uXriS7txFUDFRhs4CFdI-15" value="" style="edgeStyle=orthogonalEdgeStyle;rounded=0;orthogonalLoop=1;jettySize=auto;html=1;" edge="1" parent="1" source="uXriS7txFUDFRhs4CFdI-4" target="uXriS7txFUDFRhs4CFdI-14">
          <mxGeometry relative="1" as="geometry" />
        </mxCell>
        <mxCell id="uXriS7txFUDFRhs4CFdI-4" value="анализа питања другог круга / поремећаји" style="ellipse;whiteSpace=wrap;html=1;" vertex="1" parent="1">
          <mxGeometry x="460" y="240" width="120" height="80" as="geometry" />
        </mxCell>
        <mxCell id="uXriS7txFUDFRhs4CFdI-17" value="" style="edgeStyle=orthogonalEdgeStyle;rounded=0;orthogonalLoop=1;jettySize=auto;html=1;" edge="1" parent="1" source="uXriS7txFUDFRhs4CFdI-6" target="uXriS7txFUDFRhs4CFdI-16">
          <mxGeometry relative="1" as="geometry" />
        </mxCell>
        <mxCell id="uXriS7txFUDFRhs4CFdI-6" value="анализа питања трећег круга" style="ellipse;whiteSpace=wrap;html=1;" vertex="1" parent="1">
          <mxGeometry x="660" y="240" width="120" height="80" as="geometry" />
        </mxCell>
        <mxCell id="uXriS7txFUDFRhs4CFdI-8" value="резултат првог круга" style="whiteSpace=wrap;html=1;" vertex="1" parent="1">
          <mxGeometry x="260" y="500" width="120" height="60" as="geometry" />
        </mxCell>
        <mxCell id="uXriS7txFUDFRhs4CFdI-13" value="" style="edgeStyle=orthogonalEdgeStyle;rounded=0;orthogonalLoop=1;jettySize=auto;html=1;" edge="1" parent="1" source="uXriS7txFUDFRhs4CFdI-11" target="uXriS7txFUDFRhs4CFdI-8">
          <mxGeometry relative="1" as="geometry" />
        </mxCell>
        <mxCell id="uXriS7txFUDFRhs4CFdI-11" value="преглед првог упитника" style="ellipse;whiteSpace=wrap;html=1;" vertex="1" parent="1">
          <mxGeometry x="260" y="360" width="120" height="80" as="geometry" />
        </mxCell>
        <mxCell id="uXriS7txFUDFRhs4CFdI-19" value="" style="edgeStyle=orthogonalEdgeStyle;rounded=0;orthogonalLoop=1;jettySize=auto;html=1;" edge="1" parent="1" source="uXriS7txFUDFRhs4CFdI-14" target="uXriS7txFUDFRhs4CFdI-18">
          <mxGeometry relative="1" as="geometry" />
        </mxCell>
        <mxCell id="uXriS7txFUDFRhs4CFdI-14" value="преглед првог и другог упитника" style="ellipse;whiteSpace=wrap;html=1;" vertex="1" parent="1">
          <mxGeometry x="460" y="360" width="120" height="80" as="geometry" />
        </mxCell>
        <mxCell id="uXriS7txFUDFRhs4CFdI-21" value="" style="edgeStyle=orthogonalEdgeStyle;rounded=0;orthogonalLoop=1;jettySize=auto;html=1;" edge="1" parent="1" source="uXriS7txFUDFRhs4CFdI-16" target="uXriS7txFUDFRhs4CFdI-20">
          <mxGeometry relative="1" as="geometry" />
        </mxCell>
        <mxCell id="uXriS7txFUDFRhs4CFdI-16" value="преглед првог, другог и трећег упитника" style="ellipse;whiteSpace=wrap;html=1;" vertex="1" parent="1">
          <mxGeometry x="660" y="360" width="120" height="80" as="geometry" />
        </mxCell>
        <mxCell id="uXriS7txFUDFRhs4CFdI-18" value="резултат другог &lt;br&gt;(+ првог) круга" style="whiteSpace=wrap;html=1;" vertex="1" parent="1">
          <mxGeometry x="460" y="500" width="120" height="60" as="geometry" />
        </mxCell>
        <mxCell id="uXriS7txFUDFRhs4CFdI-20" value="резултат трећег &lt;br&gt;(+ првог и другуг) круга" style="whiteSpace=wrap;html=1;" vertex="1" parent="1">
          <mxGeometry x="660" y="500" width="120" height="60" as="geometry" />
        </mxCell>
        <mxCell id="uXriS7txFUDFRhs4CFdI-25" value="&lt;font style=&quot;font-size: 14px;&quot;&gt;Сабирање бодова&lt;/font&gt;" style="text;html=1;strokeColor=none;fillColor=none;align=center;verticalAlign=middle;whiteSpace=wrap;rounded=0;" vertex="1" parent="1">
          <mxGeometry x="60" y="265" width="140" height="30" as="geometry" />
        </mxCell>
        <mxCell id="uXriS7txFUDFRhs4CFdI-26" value="&lt;font style=&quot;font-size: 14px;&quot;&gt;Анализа збира бодова&lt;/font&gt;" style="text;html=1;strokeColor=none;fillColor=none;align=center;verticalAlign=middle;whiteSpace=wrap;rounded=0;" vertex="1" parent="1">
          <mxGeometry x="45" y="385" width="170" height="30" as="geometry" />
        </mxCell>
        <mxCell id="uXriS7txFUDFRhs4CFdI-27" value="&lt;font style=&quot;font-size: 14px;&quot;&gt;Резултат&lt;/font&gt;" style="text;html=1;strokeColor=none;fillColor=none;align=center;verticalAlign=middle;whiteSpace=wrap;rounded=0;" vertex="1" parent="1">
          <mxGeometry x="60" y="515" width="140" height="30" as="geometry" />
        </mxCell>
      </root>
    </mxGraphModel>
  </diagram>
</mxfile>
